<?xml version="1.0" encoding="iso-8859-1"?>
<!-- Generator: Adobe Illustrator 12.0.0, SVG Export Plug-In . SVG Version: 6.00 Build 51448)  -->
<!DOCTYPE svg PUBLIC "-//W3C//DTD SVG 1.1//EN" "http://www.w3.org/Graphics/SVG/1.1/DTD/svg11.dtd" [
	<!ENTITY ns_svg "http://www.w3.org/2000/svg">
	<!ENTITY ns_xlink "http://www.w3.org/1999/xlink">
]>
<svg  version="1.1" xmlns="&ns_svg;" xmlns:xlink="&ns_xlink;" width="610.586" height="411.808" viewBox="0 0 610.586 411.808"
	 style="overflow:visible;enable-background:new 0 0 610.586 411.808;" xml:space="preserve">

	

<g id="Ebene_2">
	<polygon style="opacity:0.33;fill:#003CFF;stroke:#000000;" points="209.75,35.11 189,45.86 115.75,85.86 45.25,124.86 55,143.36 
		19,167.11 23.25,199.11 25,220.86 30.5,264.36 34.5,290.86 39.75,317.11 43,341.61 145.5,371.11 147.25,369.36 152.5,329.61 
		167.5,328.36 195,335.61 226.25,285.86 290.75,283.11 353.25,282.36 355,279.11 349,248.61 393.5,251.86 424.75,255.61 
		485.75,261.36 506,261.36 507.75,255.36 530.5,258.61 544.5,264.61 558.5,261.61 578.5,261.86 585,185.61 513.75,180.11 
		483.75,178.11 460.25,175.61 433,171.36 406,164.36 381,155.36 358.5,142.36 325.75,117.86 277.5,83.36 	"/>
</g>
<g id="Ebene_3">
	<polygon style="opacity:0.33;fill:#FF0000;stroke:#000000;" points="25.25,173.86 28.75,198.11 51.25,195.36 58.75,195.86 
		60.5,212.86 69,213.36 64.5,178.61 63.75,159.61 66.5,159.36 67.25,160.61 70.5,160.11 70.75,157.86 75.75,158.11 76.75,160.86 
		82.5,160.61 83.25,154.36 80.75,153.61 81,151.11 67.25,151.36 66,153.61 55,152.86 54.25,161.61 47.5,162.86 47.5,158.61 
		40.5,159.61 39.75,164.11 37.5,165.36 39.25,172.36 31.25,173.61 30.75,171.61 25.75,171.86 	"/>
</g>
<g id="Ebene_4">
	<polygon style="opacity:0.33;fill:#00A33D;stroke:#000000;" points="43.5,355.36 36.5,377.11 60.5,384.86 57.25,396.36 
		80.5,404.36 90,376.36 83.25,375.11 75.75,398.11 65.25,395.36 73.75,365.36 	"/>
</g>
<g id="Ebene_5">
	<polygon style="opacity:0.33;fill:#00FF00;stroke:#000000;" points="70.5,377.36 81.25,380.61 75.75,398.11 65.25,395.36 	"/>
</g>
<g id="Ebene_6">
	<polygon style="opacity:0.33;fill:#8B5C29;stroke:#000000;" points="133,145.61 133.25,153.61 135,153.86 135.75,166.86 
		134.5,166.86 135,174.61 141,174.86 141.25,173.36 156.5,172.11 156.5,173.11 163.25,173.36 163.75,171.61 180.5,170.11 
		178.5,142.61 160.5,143.86 160.5,142.86 154.25,142.86 154,144.61 139.25,145.86 139.5,145.11 	"/>
</g>
<g id="Ebene_7">
	<polygon style="opacity:0.33;fill:#FFBF00;stroke:#000000;" points="253.5,137.86 254,155.86 262,156.36 262.5,155.11 
		275.25,153.86 276.25,154.86 286,154.36 286.5,151.86 298.5,152.86 304,147.86 302,134.11 287.5,133.61 287.75,134.86 
		278.5,135.36 277.5,134.11 274.75,134.36 270.5,138.61 269.75,143.86 261,144.36 259.5,137.86 	"/>
</g>
<g id="Ebene_8">
	<polygon style="opacity:0.33;fill:#AB10D2;stroke:#000000;" points="494.5,197.61 506.75,198.36 503.5,240.36 490,238.86 	"/>
</g>
<g id="Ebene_9">
	<polygon style="opacity:0.33;fill:#FFFF00;stroke:#000000;" points="536.75,198.36 561.5,200.86 560.75,210.11 536.5,207.36 	"/>
	<polygon style="opacity:0.33;fill:#FFFF00;stroke:#000000;" points="533.25,245.36 556.5,247.61 556,256.86 532.75,254.36 	"/>
</g>
<g id="Ebene_10">
	<ellipse style="opacity:0.33;fill:#AB10D2;stroke:#000000;" cx="333.667" cy="112.277" rx="22.167" ry="23.333"/>
</g>
</svg>
