<?xml version="1.0" encoding="iso-8859-1"?>
<!-- Generator: Adobe Illustrator 12.0.0, SVG Export Plug-In . SVG Version: 6.00 Build 51448)  -->
<!DOCTYPE svg PUBLIC "-//W3C//DTD SVG 1.1//EN" "http://www.w3.org/Graphics/SVG/1.1/DTD/svg11.dtd" [
	<!ENTITY ns_svg "http://www.w3.org/2000/svg">
	<!ENTITY ns_xlink "http://www.w3.org/1999/xlink">
]>
<svg  version="1.1" xmlns="&ns_svg;" xmlns:xlink="&ns_xlink;" width="632.523" height="411.808" viewBox="0 0 632.523 411.808"
	 style="overflow:visible;enable-background:new 0 0 632.523 411.808;" xml:space="preserve">
<g id="Ebene_1" style="display:none;">
	
		
</g>
<g id="Ebene_2">
	<path style="opacity:0.33;fill:#003CFF;stroke:#000000;" d="M299.438,83.36l48.25,34.5l32.75,24.5l22.5,13l25,9l27,7l27.25,4.25
		l23.5,2.5l30,2l71.25,5.5l-6.5,76.25l-20-0.25l-14,3l-14-6l-22.75-3.25l-1.75,6h-20.25l-61-5.75l-31.25-3.75l-44.5-3.25l6,30.5
		l-1.75,3.25l-62.5,0.75l-64.5,2.75l-31.25,49.75l-27.5-7.25l-15,1.25l-5.25,39.75l-1.75,1.75l-102.5-29.5l-3.25-24.5l-5.25-26.25
		l-4-26.5l-5.5-43.5l-1.75-21.75l-4.25-32l36-23.75l-9.75-18.5l70.5-39l73.25-40l20.75-10.75L299.438,83.36z"/>
</g>
<g id="Ebene_3">
	<path style="opacity:0.33;fill:#FF0000;stroke:#000000;" d="M47.688,171.86l5-0.25l0.5,2l8-1.25l-1.75-7l2.25-1.25l0.75-4.5l7-1
		v4.25l6.75-1.25l0.75-8.75l11,0.75l1.25-2.25l13.75-0.25l-0.25,2.5l2.5,0.75l-0.75,6.25l-5.75,0.25l-1-2.75l-5-0.25l-0.25,2.25
		l-3.25,0.5l-0.75-1.25l-2.75,0.25l0.75,19l4.5,34.75l-8.5-0.5l-1.75-17l-7.5-0.5l-22.5,2.75l-3.5-24.25L47.688,171.86z"/>
</g>
<g id="Ebene_4">
	<path style="opacity:0.33;fill:#00A33D;stroke:#000000;" d="M95.688,365.36l-8.5,30l10.5,2.75l7.5-23l6.75,1.25l-9.5,28l-23.25-8
		l3.25-11.5l-24-7.75l7-21.75L95.688,365.36z"/>
</g>
<g id="Ebene_5">
	<path style="opacity:0.33;fill:#00FF00;stroke:#000000;" d="M92.438,377.36l10.75,3.25l-5.5,17.5l-10.5-2.75L92.438,377.36z"/>
</g>
<g id="Ebene_6">
	<path style="opacity:0.33;fill:#8B5C29;stroke:#000000;" d="M161.438,145.11l-0.25,0.75l14.75-1.25l0.25-1.75h6.25v1l18-1.25
		l2,27.5l-16.75,1.5l-0.5,1.75l-6.75-0.25v-1l-15.25,1.25l-0.25,1.5l-6-0.25l-0.5-7.75h1.25l-0.75-13l-1.75-0.25l-0.25-8
		L161.438,145.11z"/>
</g>
<g id="Ebene_7">
	<path style="opacity:0.33;fill:#FFBF00;stroke:#000000;" d="M281.438,137.86l1.5,6.5l8.75-0.5l0.75-5.25l4.25-4.25l2.75-0.25
		l1,1.25l9.25-0.5l-0.25-1.25l14.5,0.5l2,13.75l-5.5,5l-12-1l-0.5,2.5l-9.75,0.5l-1-1l-12.75,1.25l-0.5,1.25l-8-0.5l-0.5-18H281.438
		z"/>
</g>
<g id="Ebene_8">
	<path style="opacity:0.33;fill:#AB10D2;stroke:#000000;" d="M516.438,197.61l12.25,0.75l-3.25,42l-13.5-1.5L516.438,197.61z"/>
</g>
<g id="Ebene_9">
	<path style="opacity:0.33;fill:#FFFF00;stroke:#000000;" d="M558.688,198.36l24.75,2.5l-0.75,9.25l-24.25-2.75L558.688,198.36z"/>
	<path style="opacity:0.33;fill:#FFFF00;stroke:#000000;" d="M555.188,245.36l23.25,2.25l-0.5,9.25l-23.25-2.5L555.188,245.36z"/>
</g>
<g id="Ebene_10">
	<path style="opacity:0.33;fill:#AB10D2;stroke:#000000;" d="M377.771,112.277c0,12.886-9.925,23.333-22.167,23.333
		s-22.167-10.447-22.167-23.333c0-12.887,9.925-23.333,22.167-23.333S377.771,99.391,377.771,112.277z"/>
</g>
<g id="Ebene_11">
	<path style="opacity:0.33;fill:#00FF00;stroke:#000000;" d="M231.938,18.11l9.5,7.5l18.5,13l19.5,13l16.5,11l23,18l19.5,13.5l11,4
		l18.5,12l14.5,12l17.5,12l13.5,8l16,6.5l20.5,5l26,5l19,2.5l28,2l23,2.5l27.5,1.5l27.5,3l8,4l-9.5,3.5l10,3l-6,4.5l-27.5-2l-28.5-2
		l-24-1.5l-23.5-2l-31-4l-26.5-5l-19.5-5l-24-9.5l-16-10l-14.5-12.5l-17-12l-18-12l-27.5-19l-26-19.5l-31.5-23l-24.5-18.5
		L231.938,18.11z"/>
</g>
<g id="Ebene_12">
	<path style="opacity:0.33;fill:#FF7F00;stroke:#000000;" d="M254.438,25.86c0,13.117-12.536,23.75-28,23.75s-28-10.633-28-23.75
		s12.536-23.75,28-23.75S254.438,12.744,254.438,25.86z"/>
</g>
<g id="Ebene_13">
	<path style="opacity:0.33;fill:#047391;stroke:#000000;" d="M230.438,34.61l-185.5,103l-11.5-15.5l191-105L230.438,34.61z"/>
</g>
<g id="Ebene_14">
	<path style="opacity:0.33;fill:#8210D2;stroke:#000000;" d="M44.938,87.61l34,59.5l-44.5,25.5l-34-61.5"/>
</g>
<g id="Ebene_15">
	<path style="opacity:0.33;fill:#CCFF00;stroke:#000000;" d="M347.938,18.11l7.5,45.5l4.5,19.5l3,27l8,51l6,18l-1,12.5l2.5,15
		l3,22.5l3,17.5l7.5,32.5l0.5,12l3,23.5l2.5,16l2.5,20.5l2.5,15v17l-4,12.5l-6.5,7.5l-5.5,6l0.5-7.5l-6,1.5l2-5h-6l7.5-8l3-5.5l3-5
		v-7l0.5-7l-2-11l-2.5-12.5l-2-12.5l-1-13.5l-1-9l-2-11l-3-11.5l-2.5-9l-3.5-16l-3-16.5l-1-11l-3-8.5l-1-13l-1.5-8.5l-1.5-15.5
		l-1.5-12l-2.5-12.5l-1.5-12.5l-3.5-20l-4.5-27.5l-1.5-16.5l-3.5-26l-2.5-19.5l-4.5-19.5l5.5,6l2.5-8.5H347.938z"/>
</g>
</svg>
